<svg width="128" height="30" viewBox="0 0 128 30" fill="none" xmlns="http://www.w3.org/2000/svg">
<path d="M6.388 3.728V29H0.232V3.728H6.388ZM37.7853 11.72C37.3293 10.88 36.6693 10.244 35.8053 9.812C34.9653 9.356 33.9693 9.128 32.8173 9.128C30.8253 9.128 29.2293 9.788 28.0293 11.108C26.8293 12.404 26.2293 14.144 26.2293 16.328C26.2293 18.656 26.8533 20.48 28.1013 21.8C29.3733 23.096 31.1133 23.744 33.3213 23.744C34.8333 23.744 36.1053 23.36 37.1373 22.592C38.1933 21.824 38.9613 20.72 39.4413 19.28H31.6293V14.744H45.0213V20.468C44.5653 22.004 43.7853 23.432 42.6813 24.752C41.6013 26.072 40.2213 27.14 38.5413 27.956C36.8613 28.772 34.9653 29.18 32.8533 29.18C30.3573 29.18 28.1253 28.64 26.1573 27.56C24.2133 26.456 22.6893 24.932 21.5853 22.988C20.5053 21.044 19.9653 18.824 19.9653 16.328C19.9653 13.832 20.5053 11.612 21.5853 9.668C22.6893 7.7 24.2133 6.176 26.1573 5.096C28.1013 3.992 30.3213 3.44 32.8173 3.44C35.8413 3.44 38.3853 4.172 40.4493 5.636C42.5373 7.1 43.9173 9.128 44.5893 11.72H37.7853ZM47.2072 18.92C47.2072 16.856 47.5912 15.044 48.3592 13.484C49.1512 11.924 50.2192 10.724 51.5632 9.884C52.9072 9.044 54.4072 8.624 56.0632 8.624C57.4792 8.624 58.7152 8.912 59.7712 9.488C60.8512 10.064 61.6792 10.82 62.2552 11.756V8.912H68.4112V29H62.2552V26.156C61.6552 27.092 60.8152 27.848 59.7352 28.424C58.6792 29 57.4432 29.288 56.0272 29.288C54.3952 29.288 52.9072 28.868 51.5632 28.028C50.2192 27.164 49.1512 25.952 48.3592 24.392C47.5912 22.808 47.2072 20.984 47.2072 18.92ZM62.2552 18.956C62.2552 17.42 61.8232 16.208 60.9592 15.32C60.1192 14.432 59.0872 13.988 57.8632 13.988C56.6392 13.988 55.5952 14.432 54.7312 15.32C53.8912 16.184 53.4712 17.384 53.4712 18.92C53.4712 20.456 53.8912 21.68 54.7312 22.592C55.5952 23.48 56.6392 23.924 57.8632 23.924C59.0872 23.924 60.1192 23.48 60.9592 22.592C61.8232 21.704 62.2552 20.492 62.2552 18.956ZM79.0208 11.756C79.5968 10.82 80.4248 10.064 81.5048 9.488C82.5848 8.912 83.8208 8.624 85.2128 8.624C86.8688 8.624 88.3688 9.044 89.7128 9.884C91.0568 10.724 92.1128 11.924 92.8808 13.484C93.6728 15.044 94.0688 16.856 94.0688 18.92C94.0688 20.984 93.6728 22.808 92.8808 24.392C92.1128 25.952 91.0568 27.164 89.7128 28.028C88.3688 28.868 86.8688 29.288 85.2128 29.288C83.7968 29.288 82.5608 29.012 81.5048 28.46C80.4488 27.884 79.6208 27.128 79.0208 26.192V29H72.8648V2.36H79.0208V11.756ZM87.8048 18.92C87.8048 17.384 87.3728 16.184 86.5088 15.32C85.6688 14.432 84.6248 13.988 83.3768 13.988C82.1528 13.988 81.1088 14.432 80.2448 15.32C79.4048 16.208 78.9848 17.42 78.9848 18.956C78.9848 20.492 79.4048 21.704 80.2448 22.592C81.1088 23.48 82.1528 23.924 83.3768 23.924C84.6008 23.924 85.6448 23.48 86.5088 22.592C87.3728 21.68 87.8048 20.456 87.8048 18.92ZM100.394 6.824C99.3144 6.824 98.4264 6.512 97.7304 5.888C97.0584 5.24 96.7224 4.448 96.7224 3.512C96.7224 2.552 97.0584 1.76 97.7304 1.136C98.4264 0.487998 99.3144 0.163998 100.394 0.163998C101.45 0.163998 102.314 0.487998 102.986 1.136C103.682 1.76 104.03 2.552 104.03 3.512C104.03 4.448 103.682 5.24 102.986 5.888C102.314 6.512 101.45 6.824 100.394 6.824ZM103.454 8.912V29H97.2984V8.912H103.454ZM120.156 8.696C122.508 8.696 124.38 9.464 125.772 11C127.188 12.512 127.896 14.6 127.896 17.264V29H121.776V18.092C121.776 16.748 121.428 15.704 120.732 14.96C120.036 14.216 119.1 13.844 117.924 13.844C116.748 13.844 115.812 14.216 115.116 14.96C114.42 15.704 114.072 16.748 114.072 18.092V29H107.916V8.912H114.072V11.576C114.696 10.688 115.536 9.992 116.592 9.488C117.648 8.96 118.836 8.696 120.156 8.696Z" fill="white"/>
<path d="M13.7292 29.288C12.6492 29.288 11.7612 28.976 11.0652 28.352C10.3932 27.704 10.0572 26.912 10.0572 25.976C10.0572 25.016 10.3932 24.212 11.0652 23.564C11.7612 22.916 12.6492 22.592 13.7292 22.592C14.7852 22.592 15.6492 22.916 16.3212 23.564C17.0172 24.212 17.3652 25.016 17.3652 25.976C17.3652 26.912 17.0172 27.704 16.3212 28.352C15.6492 28.976 14.7852 29.288 13.7292 29.288Z" fill="#FF4A57"/>
</svg>
